<?xml version="1.0" encoding="UTF-8"?>
<svg id="Layer_1" data-name="Layer 1" xmlns="http://www.w3.org/2000/svg" viewBox="0 0 500 500">
  <defs>
    <style>
      .cls-1 {
        fill: #fff;
      }

      .cls-2 {
        fill: #a5db93;
      }
    </style>
  </defs>
  <ellipse id="_Ellipse_" data-name="&amp;lt;Ellipse&amp;gt;" class="cls-1" cx="250" cy="250" rx="99" ry="100"/>
  <g>
    <polygon class="cls-2" points="261.15 152.05 261.02 152.18 263.83 180.08 236.27 178.66 236.27 178.66 282.67 201.41 261.15 152.05"/>
    <path class="cls-2" d="M149.05,253.39c-9.88-8.48-16.03-20.99-16.49-34.41-.45-13.42,4.91-27.6,14.79-38.1,15.35-16.32,39.47-22.07,60.61-19.79,21.14,2.28,40.06,11.38,60.01,21.75-15.51-16.05-32.7-31.41-54.45-38.85-21.75-7.44-49.05-5.51-68.36,10.14-16.27,13.19-24.47,34.59-22.64,53.84,1.83,19.25,12.88,36.15,26.53,45.41Z"/>
  </g>
  <g>
    <polygon class="cls-2" points="236.1 326.7 263.66 328.13 217.27 305.38 238.78 354.74 238.91 354.61 236.1 326.7"/>
    <path class="cls-2" d="M350.88,253.39c9.88,8.48,16.03,20.99,16.49,34.41.45,13.42-4.91,27.6-14.79,38.1-15.35,16.32-39.47,22.07-60.61,19.79-21.14-2.28-40.06-11.38-60.01-21.75,15.51,16.05,32.7,31.41,54.45,38.85,21.75,7.44,49.05,5.51,68.36-10.14,16.27-13.19,24.47-34.59,22.64-53.84-1.83-19.25-12.88-36.15-26.53-45.41Z"/>
  </g>
</svg>